<?xml version="1.0" encoding="utf-8"?>
<!-- Generator: Adobe Illustrator 27.2.0, SVG Export Plug-In . SVG Version: 6.00 Build 0)  -->
<svg version="1.1" id="Laag_1" xmlns="http://www.w3.org/2000/svg" xmlns:xlink="http://www.w3.org/1999/xlink" x="0px" y="0px"
	 viewBox="0 0 2115.5 440.6" style="enable-background:new 0 0 2115.5 440.6;" xml:space="preserve">
<style type="text/css">
	.st0{fill:#830924;}
	.st1{fill:#FFFFFF;stroke:#830924;stroke-width:5;stroke-miterlimit:10;}
	.st2{fill:none;stroke:#830924;stroke-width:10;}
	.st3{fill:#FFFFFF;}
	.st4{fill:#FFFFFF;stroke:#830924;stroke-width:0.25;stroke-miterlimit:10;}
	.st5{fill:#FFFFFF;stroke:#830924;stroke-width:10;stroke-miterlimit:10;}
	.st6{fill:none;stroke:#830924;stroke-width:0.25;}
</style>
<path class="st0" d="M9.8,432.7V128h84.9c78.6,0,125.8,39,125.8,109c0,86.8-57.4,100.3-130.7,100.3H79.2v95.5L9.8,432.7 M79.2,308.3
	h10.1c47.7,0,56.9-38.6,56.9-78.6c0-37.6-15-72.8-57.4-72.8h-9.6V308.3z"/>
<path class="st0" d="M266.8,128h109.4c36.6,0,69.9,24.1,69.9,63.6c0,27-12.6,46.3-39.5,53l60.3,92.6h-78.1l-48.2-102.7h1
	c25.5,0,35.2-15.4,35.2-40c0-24.1-14.9-37.6-32.8-37.6h-7.7v180.3h-69.4L266.8,128"/>
<path class="st0" d="M589.3,126.1c59.3,0,106.5,46.8,106.5,106.6s-47.3,106.6-106.5,106.6c-59.3,0-106.6-46.8-106.6-106.6
	C482.8,172.8,530,126.1,589.3,126.1 M589.3,314.1c28.9,0,32.3-40.5,32.3-81.5s-3.4-81.5-32.3-81.5S557,191.6,557,232.6
	S560.4,314.1,589.3,314.1"/>
<path class="st1" d="M884.9,191.6c-8.7-20.7-19.3-36.6-43.4-36.6c-20.2,0-42.9,23.1-42.9,77.6c0,51.6,11.6,77.6,42.9,77.6
	c26.5,0,38.1-20.2,48.2-42.4l26,14.5c-13.5,36.2-44.4,56.9-82.5,56.9c-63.2,0-109-36.6-109-103.1c0-60.8,37.1-109.9,101.7-109.9
	c40,0,69.4,13.5,87.3,51.6L884.9,191.6"/>
<path class="st2" d="M884.9,191.6c-8.7-20.7-19.3-36.6-43.4-36.6c-20.2,0-42.9,23.1-42.9,77.6c0,51.6,11.6,77.6,42.9,77.6
	c26.5,0,38.1-20.2,48.2-42.4l26,14.5c-13.5,36.2-44.4,56.9-82.5,56.9c-63.2,0-109-36.6-109-103.1c0-60.8,37.1-109.9,101.7-109.9
	c40,0,69.4,13.5,87.3,51.6L884.9,191.6z"/>
<path class="st3" d="M936.9,337.2l54-169.2c7.7-24.6,16.9-41.9,45.8-41.9c25.5,0,34.7,18.8,41.5,40l56.4,171.1h-69.4l-12.1-38.6
	h-71.4l-13,38.6H936.9 M991.4,269.7h52.6l-25.1-84.9h-1L991.4,269.7z"/>
<polygon class="st2" points="991.4,269.7 1044,269.7 1018.9,184.9 1017.9,184.9 "/>
<path class="st2" d="M936.9,337.2l54-169.2c7.7-24.6,16.9-41.9,45.8-41.9c25.6,0,34.7,18.8,41.5,40l56.4,171.1h-69.4l-12.1-38.6
	h-71.4l-13,38.6H936.9z"/>
<path class="st3" d="M1243.6,158.8c-10.6,0-24.1,1-24.1,17.4c0,38.6,93.5,2.9,93.5,87.8c0,48.7-32.8,73.3-75.7,73.3h-75.2v-30.9
	h58.8c19.3,0,31.8-1.4,31.8-25.1c0-38.6-100.3-7.2-100.3-86.3c0-43.9,30.9-67,72.3-67h66.5v30.8L1243.6,158.8"/>
<path class="st2" d="M1243.6,158.8c-10.6,0-24.1,1-24.1,17.4c0,38.6,93.5,2.9,93.5,87.8c0,48.7-32.8,73.3-75.7,73.3h-75.2v-30.9
	h58.8c19.3,0,31.8-1.4,31.8-25.1c0-38.6-100.3-7.2-100.3-86.3c0-43.9,30.9-67,72.3-67h66.5v30.9L1243.6,158.8L1243.6,158.8z"/>
<polyline class="st3" points="1330.4,128 1508.7,128 1508.7,165.6 1454.3,165.6 1454.3,337.2 1384.8,337.2 1384.8,165.6 
	1330.4,165.6 1330.4,128 "/>
<polygon class="st2" points="1330.4,128 1508.7,128 1508.7,165.6 1454.3,165.6 1454.3,337.2 1384.8,337.2 1384.8,165.6 
	1330.4,165.6 "/>
<path class="st4" d="M1616.3,43.6c0,19.3-16.4,35.7-35.7,35.7c-19.3,0-35.7-16.4-35.7-35.7s16.4-35.7,35.7-35.7
	C1599.9,7.9,1616.3,24.3,1616.3,43.6 M1545.9,128h69.4v209.2h-69.4V128z"/>
<rect x="1545.9" y="128" class="st2" width="69.4" height="209.2"/>
<path class="st2" d="M1616.3,43.6c0,19.3-16.4,35.7-35.7,35.7c-19.3,0-35.7-16.4-35.7-35.7s16.4-35.7,35.7-35.7
	C1599.9,7.9,1616.3,24.3,1616.3,43.6z"/>
<path class="st5" d="M1840.9,304.4c0,18.3-3.9,34.7-25.5,34.7c-14.5,0-21.7-5.3-28.9-17.4l-73.3-118.6h-1v134h-34.7v-172
	c0-16.9,3.4-39,36.2-39c20.7,0,30.9,10.1,41.5,27l50.1,79.5h1V126.1h34.7L1840.9,304.4"/>
<path class="st6" d="M1840.9,304.4c0,18.3-3.9,34.7-25.5,34.7c-14.5,0-21.7-5.3-28.9-17.4l-73.3-118.6h-1v134h-34.7v-172
	c0-16.9,3.4-39,36.2-39c20.7,0,30.9,10.1,41.5,27l50.1,79.6h1V126.1h34.7L1840.9,304.4L1840.9,304.4z"/>
<path class="st3" d="M2052.6,192.6c-13-20.7-24.1-37.6-50.2-37.6c-20.2,0-42.9,23.1-42.9,77.6c0,51.6,11.6,77.6,42.9,77.6
	c16.9,0,29.4-8.7,35.7-20.3v-59.3h69.4v202h-69.4V330c-11.6,5.3-33.8,9.2-43.9,9.2c-63.1,0-109-36.7-109-103.2
	c0-60.7,37.1-109.9,101.7-109.9c43.9,0,68,16.9,91.6,45.8L2052.6,192.6"/>
<path class="st2" d="M2052.6,192.6c-13-20.7-24.1-37.6-50.2-37.6c-20.2,0-42.9,23.1-42.9,77.6c0,51.6,11.6,77.6,42.9,77.6
	c16.9,0,29.4-8.7,35.7-20.3v-59.3h69.4v202h-69.4V330c-11.6,5.3-33.8,9.2-43.9,9.2c-63.1,0-109-36.7-109-103.2
	c0-60.7,37.1-109.9,101.7-109.9c43.9,0,68,16.9,91.6,45.8L2052.6,192.6z"/>
</svg>
